<svg xmlns="http://www.w3.org/2000/svg" viewBox="0 0 468.3 468.3"><path d="M209.1 62.5c0-6.5-5.3-11.9-11.9-11.9H53.8c-6.5 0-11.9 5.3-11.9 11.9v4.6c0 5.3-4.3 9.6-9.6 9.6-6.5 0-11.9 5.3-11.9 11.9v111.1h414.9v-123h-212c-7.9 0-14.2-6.3-14.2-14.2z" fill="#0a5a87"/><path fill="#ebf0f3" d="M46.7 99.8h377.6v194.5H46.7z"/><path d="M444.6 417.6H23.7C10.6 417.6 0 407 0 393.9v-252c0-13.1 10.6-23.7 23.7-23.7h254.6c9.7 0 18.5-6 22.1-15l11.5-29.3c3.6-9.1 12.3-15 22.1-15h110.6c13.1 0 23.7 10.6 23.7 23.7v311.3c0 13.1-10.6 23.7-23.7 23.7z" fill="#0492f2"/></svg>