<svg version="1.1" id="Capa_1" xmlns="http://www.w3.org/2000/svg" x="0" y="0" viewBox="0 0 468.3 468.3" xml:space="preserve"><style>.st4{fill:#64798a}.st5{fill:#a5a5a5}</style><path d="M209.1 62.5c0-6.5-5.3-11.9-11.9-11.9H53.8c-6.5 0-11.9 5.3-11.9 11.9v4.6c0 5.3-4.3 9.6-9.6 9.6-6.5 0-11.9 5.3-11.9 11.9v111.1h414.9v-123h-212c-7.9 0-14.2-6.3-14.2-14.2z" fill="#0a5a87"/><path fill="#fff" d="M46.7 99.8h377.6v194.5H46.7z"/><path fill="#dbdbdb" d="M406.2 7.9v336H94V59.2h51.4V7.9z"/><path fill="#d2d6d8" d="M145.4 7.9v51.3H94z"/><path class="st4" d="M356.3 34.9h25v25h-25zM356.3 78.9h25v25h-25zM356.3 122.9h25v25h-25z"/><g><path class="st5" d="M170.3 41.2h161v12.5h-161zM170.3 85.2h161v12.5h-161zM170.3 129.2h161v12.5h-161z"/></g><path d="M444.6 417.6H23.7C10.6 417.6 0 407 0 393.9v-252c0-13.1 10.6-23.7 23.7-23.7h254.6c9.7 0 18.5-6 22.1-15l11.5-29.3c3.6-9.1 12.3-15 22.1-15h110.6c13.1 0 23.7 10.6 23.7 23.7v311.3c0 13.1-10.6 23.7-23.7 23.7z" fill="#0492f2"/></svg>