<svg version="1.1" id="Capa_1" xmlns="http://www.w3.org/2000/svg" x="0" y="0" viewBox="0 0 56 56" xml:space="preserve"><style>.st5{fill:#fff}</style><path d="M37 0H8c-.8 0-1.5.7-1.5 1.9V55c0 .3.7 1 1.5 1h40c.8 0 1.5-.7 1.5-1V13c0-.7-.1-.9-.3-1.1L37.6.3c-.2-.2-.4-.3-.6-.3z" fill="#e9e9e0"/><path d="M48 56H8c-.8 0-1.5-.7-1.5-1.5V39h43v15.5c0 .8-.7 1.5-1.5 1.5z" fill="#1e579b"/><path fill="#d9d7ca" d="M37.5.2V12h11.8z"/><circle cx="18.9" cy="14.4" r="4.6" fill="#f3d55b"/><path fill="#0f73d6" d="M6.5 39h43V28l-10-9.5L29 30l-5.5-5.5z"/><g><path class="st5" d="M25.5 52.6c-.7.2-1.9.6-3.3.6-1.7 0-3-.4-4-1.3-.9-.9-1.4-2.2-1.4-3.7 0-3.2 2.3-5.3 5.6-5.3 1.2 0 2.2.3 2.7.5l-.4 1.5c-.6-.2-1.2-.4-2.3-.4-2.2 0-3.7 1.3-3.7 3.6s1.4 3.7 3.5 3.7c.7 0 1.2-.1 1.4-.2v-2.5h-1.8v-1.5h3.6v5zM29.7 42.9V53h-1.9V42.9h1.9zM32.2 42.9h5.9v1.5h-4v2.8h3.7v1.5h-3.7V53h-1.9V42.9z"/></g></svg>