<svg xmlns="http://www.w3.org/2000/svg" viewBox="0 0 56 56"><path d="M36.985 0H7.963C7.155 0 6.5.655 6.5 1.926V55c0 .345.655 1 1.463 1h40.074c.808 0 1.463-.655 1.463-1V12.978c0-.696-.093-.92-.257-1.085L37.607.257A.884.884 0 0036.985 0z" fill="#e9e9e0"/><path fill="#d9d7ca" d="M37.5.151V12h11.849z"/><circle cx="25.5" cy="25" r="10" fill="#fff"/><path d="M25.5 36c-6.065 0-11-4.935-11-11s4.935-11 11-11 11 4.935 11 11-4.935 11-11 11zm0-20c-4.963 0-9 4.037-9 9s4.037 9 9 9 9-4.037 9-9-4.037-9-9-9z" fill="#556080"/><path d="M42.5 45a.997.997 0 01-.707-.293l-11-11a.999.999 0 111.414-1.414l11 11A.999.999 0 0142.5 45z" fill="#556080"/><path d="M25.5 22h-6a1 1 0 110-2h6a1 1 0 110 2zM30.5 22h-2a1 1 0 110-2h2a1 1 0 110 2zM24.5 30h-2a1 1 0 110-2h2a1 1 0 110 2zM30.5 30h-2a1 1 0 110-2h2a1 1 0 110 2zM23.5 26h-4a1 1 0 110-2h4a1 1 0 110 2zM32.5 26h-5a1 1 0 110-2h5a1 1 0 110 2z" fill="#d1d4d1"/></svg>