<svg xmlns="http://www.w3.org/2000/svg" viewBox="0 0 504.123 504.123"><path d="M406.617 430.08c0 40.96-68.923 74.043-154.388 74.043-85.071 0-154.388-33.083-154.388-74.043L67.121 98.462h370.215L406.617 430.08z" fill="#efc75e"/><path d="M67.121 98.462l4.726 50.806c29.538 35.052 99.249 59.471 180.382 59.471s150.843-24.418 180.382-59.471l4.726-50.806H67.121zm185.108 163.052c-6.695 0-12.603 5.514-12.603 12.603v168.172c0 6.695 5.514 12.603 12.603 12.603 6.695 0 12.603-5.514 12.603-12.603V273.723c0-6.695-5.908-12.209-12.603-12.209zm62.228-6.302c-6.695 0-12.603 5.514-12.603 12.603l-6.302 167.778c0 6.695 5.514 12.603 12.603 12.603 6.695 0 12.603-5.514 12.603-12.603l5.908-167.778c0-7.089-5.514-12.603-12.209-12.603zm55.926-12.603c-6.695 0-12.603 5.514-12.603 12.603l-12.603 165.022c0 6.695 5.514 12.603 12.603 12.603 6.695 0 12.603-5.514 12.603-12.603l12.603-165.022c0-6.695-5.908-12.603-12.603-12.603zm-180.382 12.603c-6.695 0-12.603 5.514-12.603 12.603l6.302 168.172c0 6.695 5.514 12.603 12.603 12.603 7.089 0 12.603-5.514 12.603-12.603l-6.302-168.172c0-7.089-5.907-12.603-12.603-12.603zm-55.926-12.603c-6.695 0-12.603 5.514-12.603 12.603l12.603 165.022c0 6.695 5.514 12.603 12.603 12.603s12.603-5.514 12.603-12.603l-12.603-165.022c-.394-6.695-5.907-12.603-12.603-12.603z" fill="#d7b354"/><path d="M428.672 72.074c15.36 15.36 12.209 33.083 12.209 33.871 0 52.382-84.677 94.917-189.046 94.917S63.183 158.326 63.183 105.945c0-.394-2.757-18.905 11.815-33.871 11.028-12.209 343.04-12.209 353.674 0z" fill="#efc75e"/><path d="M252.229 0c102.4 0 185.108 40.566 185.108 90.585s-82.708 90.585-185.108 90.585S67.121 140.603 67.121 90.585 149.829 0 252.229 0z" fill="#bf9f4b"/><path d="M145.891 137.058l-18.117 20.48c33.083 14.178 76.406 23.237 124.455 23.237s91.372-8.665 124.455-23.237l-18.117-20.48c-30.326 11.422-66.954 18.511-106.338 18.511-39.778 0-76.406-7.089-106.338-18.511z" fill="#cdcfcf"/><path d="M252.229 31.508c83.102 0 154.388 24.812 185.108 59.865v-.788C437.337 40.566 354.629 0 252.229 0S67.121 40.566 67.121 90.585v.788c30.72-35.053 102.006-59.865 185.108-59.865z" fill="#ac8f43"/><path d="M252.229 181.169c48.049 0 91.766-9.058 124.455-23.631l-55.926-64.197-76.8 87.828h8.271z" fill="#ccd0d2"/><path d="M158.887 168.172l1.182 1.182c27.175 7.483 58.683 11.815 92.16 11.815 26.782 0 52.382-2.757 75.618-7.877l5.12-5.12-87.04-99.643-87.04 99.643z" fill="#dcdedf"/><path d="M252.229 181.169h8.271l-76.8-87.828-55.926 64.197c32.689 14.967 76.406 23.631 124.455 23.631z" fill="#e4e7e7"/><path d="M244.352 180.382h7.483c47.655 0 91.372-8.665 124.455-23.237l-17.723-20.086c-26.388 10.24-57.895 16.935-92.16 18.511l-22.055 24.812z" fill="#b7bbbd"/><path d="M316.426 149.268c-20.086 4.332-41.748 6.695-64.197 6.695-26.388 0-51.594-3.151-74.437-9.058l-18.511 21.268.394.394c27.175 7.483 59.077 11.815 92.948 11.815 27.175 0 53.169-2.757 76.406-7.877l4.726-4.726-17.329-18.511z" fill="#c6c7c8"/><path d="M259.712 180.382l-22.055-25.206c-34.265-1.575-65.772-8.271-92.16-18.511l-17.723 20.874c33.083 14.178 76.406 23.237 124.455 23.237 2.363-.394 5.12-.394 7.483-.394z" fill="#cdcfcf"/></svg>