<svg xmlns="http://www.w3.org/2000/svg" viewBox="0 0 512 512"><path d="M512 256c0 67.49-26.122 128.899-68.817 174.634C396.466 480.695 329.885 512 256 512c-38.975 0-75.901-8.704-108.962-24.273-29.633-13.96-56.153-33.437-78.221-57.104C26.122 384.888 0 323.5 0 256c0-50.918 14.858-98.367 40.49-138.23a254.321 254.321 0 018.746-12.748C95.807 41.357 171.071 0 256 0s160.193 41.357 206.764 105.023a253.82 253.82 0 018.735 12.737C497.131 157.633 512 205.082 512 256z" fill="#5c5e70"/><g fill="#279fc9"><path d="M472.649 105.023L471.5 117.76l-2.581 28.526-25.736 284.348C396.466 480.695 329.885 512 256 512c-38.975 0-75.901-8.704-108.962-24.273-29.633-13.96-56.153-33.437-78.221-57.104L40.49 117.77l-1.149-12.748h433.308zM416.681 15.692H95.311c-24.647 0-44.628 19.981-44.628 44.628v32.169h410.624V60.32c.002-24.647-19.979-44.628-44.626-44.628z"/></g><g fill="#34abe0"><path d="M468.919 146.286l-25.736 284.348C396.466 480.695 329.885 512 256 512c-38.975 0-75.901-8.704-108.962-24.273l-26.081-288.256c-2.591-28.568 19.905-53.185 48.588-53.185h299.374zM491.585 124.452H20.409c-5.58 0-10.104-4.523-10.104-10.104V83.169c0-5.58 4.523-10.104 10.104-10.104h471.176c5.58 0 10.104 4.523 10.104 10.104v31.179c0 5.579-4.523 10.104-10.104 10.104z"/></g><path d="M248.599 346.205v51.663c-24.21 0-39.913-.131-50.036-3.043-5.836-1.678-10.778-5.587-13.864-10.818 0-.002 0-.004-.002-.007-1.932-5.346-4.99-17.636-.313-26.868 3.097-6.119 11.025-6.297 13.416-10.928h50.799v.001z" fill="#e8e8e8"/><path d="M206.106 283.513l25.774 51.546-21.943-11.84s-4.045 7.314-12.138 22.986c-2.392 4.63-5.137 9.991-8.234 16.11-4.677 9.233-6.801 16.34-4.869 21.685L157.5 337.88a15.624 15.624 0 01-.492-14.965l11.253-22.336-20.315-11.842 58.16-5.224z" fill="#d6d6d6"/><path d="M296.225 304.338l44.74-25.831c12.105 20.967 19.843 34.631 22.383 44.854 1.465 5.893.551 12.127-2.437 17.414-.002.001-.004.002-.005.005-3.663 4.346-12.778 13.14-23.112 13.706-6.847.377-10.966-6.4-16.172-6.155l-25.397-43.993z" fill="#e8e8e8"/><path d="M263.178 372.483l31.753-48.095.718 24.923s8.357-.155 25.975-.982c5.206-.243 11.221-.548 18.068-.925 10.334-.566 17.551-2.28 21.215-6.626l-26.342 46.614a15.624 15.624 0 01-12.714 7.909l-24.969 1.423-.098 23.514-33.606-47.755z" fill="#d6d6d6"/><path d="M234.963 284.994l-44.74-25.831c12.105-20.967 20.07-34.5 27.653-41.812 4.372-4.215 10.227-6.541 16.299-6.597.002.001.004.002.007.001 5.595 1 17.768 4.496 23.426 13.163 3.75 5.742-.06 12.697 2.754 17.083l-25.399 43.993z" fill="#e8e8e8"/><path d="M310.503 279.54l-57.528-3.452 21.225-13.083s-4.312-7.161-13.838-22.003a2200.343 2200.343 0 00-9.835-15.186c-5.657-8.666-10.75-14.06-16.345-15.059l53.54-.494a15.624 15.624 0 0113.206 7.056l13.716 20.913 20.413-11.673-24.554 52.981z" fill="#d6d6d6"/></svg>